<?xml version="1.0" encoding="UTF-8"?>
<!DOCTYPE svg PUBLIC "-//W3C//DTD SVG 1.1//EN" "http://www.w3.org/Graphics/SVG/1.1/DTD/svg11.dtd">
<!-- Creator: CorelDRAW X8 -->
<svg xmlns="http://www.w3.org/2000/svg" xml:space="preserve" width="83.8596mm" height="34.1018mm" version="1.1" style="shape-rendering:geometricPrecision; text-rendering:geometricPrecision; image-rendering:optimizeQuality; fill-rule:evenodd; clip-rule:evenodd"
viewBox="0 0 5499 2236"
 xmlns:xlink="http://www.w3.org/1999/xlink">
 <defs>
  <style type="text/css">
   <![CDATA[
    .fil1 {fill:#FEFEFE}
    .fil0 {fill:#FEFEFE;fill-rule:nonzero}
   ]]>
  </style>
 </defs>
 <g id="Layer_x0020_1">
  <metadata id="CorelCorpID_0Corel-Layer"/>
  <g id="_2541510075760">
   <polygon class="fil0" points="377,1893 377,2228 459,2228 459,1761 371,1761 229,1982 87,1761 0,1761 0,2228 81,2228 81,1895 227,2113 229,2113 "/>
   <path id="1" class="fil0" d="M973 2164l0 -197 -199 0 0 72 120 0 0 87c-29,22 -69,36 -113,36 -95,0 -159,-71 -159,-168 0,-91 66,-165 152,-165 59,0 95,19 131,50l52 -62c-48,-41 -98,-64 -180,-64 -141,0 -241,111 -241,242 0,137 96,241 242,241 83,0 149,-33 195,-72z"/>
   <path id="2" class="fil0" d="M1664 2154l-52 -54c-40,38 -77,61 -134,61 -90,0 -154,-75 -154,-167 0,-92 64,-165 154,-165 53,0 93,23 130,58l53 -61c-45,-43 -97,-73 -183,-73 -141,0 -240,109 -240,242 0,135 101,241 237,241 87,0 141,-32 189,-82z"/>
   <path id="3" class="fil0" d="M2183 1994c0,-132 -100,-241 -244,-241 -143,0 -244,110 -244,242 0,132 100,241 243,241 143,0 245,-110 245,-242zm-86 1c0,92 -65,166 -158,166 -92,0 -158,-76 -158,-167 0,-91 64,-165 157,-165 93,0 159,75 159,166z"/>
   <polygon id="4" class="fil0" points="2586,2084 2336,1761 2260,1761 2260,2228 2341,2228 2341,1896 2598,2228 2667,2228 2667,1761 2586,1761 "/>
   <path id="5" class="fil0" d="M2835 1883c0,-31 28,-56 76,-56 42,0 84,17 126,48l45 -62c-48,-38 -102,-58 -170,-58 -93,0 -159,54 -159,136 0,86 56,116 155,140 87,20 105,38 105,72 0,36 -32,59 -82,59 -58,0 -103,-22 -148,-61l-49 59c56,50 123,75 195,75 98,0 167,-52 167,-140 0,-78 -52,-114 -151,-138 -89,-21 -110,-37 -110,-74z"/>
   <path id="6" class="fil0" d="M3563 1761l-82 0 0 269c0,86 -45,130 -118,130 -73,0 -118,-47 -118,-133l0 -266 -82 0 0 269c0,136 77,206 199,206 122,0 201,-70 201,-210l0 -265z"/>
   <polygon id="7" class="fil0" points="3653,2228 3981,2228 3981,2154 3736,2154 3736,1761 3653,1761 "/>
   <polygon id="8" class="fil0" points="4175,1837 4323,1837 4323,1761 3944,1761 3944,1837 4093,1837 4093,2228 4175,2228 "/>
   <polygon id="9" class="fil0" points="4393,1761 4393,2228 4475,2228 4475,1761 "/>
   <polygon id="10" class="fil0" points="4904,2084 4654,1761 4578,1761 4578,2228 4659,2228 4659,1896 4916,2228 4985,2228 4985,1761 4904,1761 "/>
   <path id="11" class="fil0" d="M5499 2164l0 -197 -199 0 0 72 120 0 0 87c-29,22 -69,36 -113,36 -95,0 -159,-71 -159,-168 0,-91 66,-165 152,-165 59,0 94,19 130,50l52 -62c-48,-41 -98,-64 -179,-64 -141,0 -241,111 -241,242 0,137 96,241 242,241 83,0 149,-33 195,-72z"/>
   <g>
    <polygon class="fil1" points="3378,693 3378,0 3108,0 2750,572 2391,0 2122,0 2122,693 2391,693 2391,485 2714,1001 2785,1001 3108,485 3108,693 "/>
    <path class="fil1" d="M2976 785l-135 216 267 0 0 88 -3 2c-78,56 -178,84 -290,84 -230,0 -399,-162 -422,-390l-272 0c8,381 288,661 692,661 241,0 429,-97 565,-212l0 -449 -402 0z"/>
   </g>
  </g>
 </g>
</svg>
