<?xml version="1.0" encoding="UTF-8"?>
<!DOCTYPE svg PUBLIC "-//W3C//DTD SVG 1.1//EN" "http://www.w3.org/Graphics/SVG/1.1/DTD/svg11.dtd">
<!-- Creator: CorelDRAW X8 -->
<svg xmlns="http://www.w3.org/2000/svg" xml:space="preserve" width="60.0132mm" height="69.064mm" version="1.1" style="shape-rendering:geometricPrecision; text-rendering:geometricPrecision; image-rendering:optimizeQuality; fill-rule:evenodd; clip-rule:evenodd"
viewBox="0 0 3536 4069"
 xmlns:xlink="http://www.w3.org/1999/xlink">
 <defs>
  <style type="text/css">
   <![CDATA[
    .fil0 {fill:#2E3959}
   ]]>
  </style>
 </defs>
 <g id="Layer_x0020_1">
  <metadata id="CorelCorpID_0Corel-Layer"/>
  <g id="_2540781770368">
   <polygon class="fil0" points="3535,1949 3536,0 2776,0 1769,1610 760,0 2,0 2,1949 760,1949 760,1365 1668,2816 1867,2816 2777,1365 2777,1949 "/>
   <path class="fil0" d="M2405 2209l-380 607 752 0 0 248 -8 5c-220,158 -502,237 -817,237 -648,0 -1122,-456 -1187,-1098l-765 0c21,1073 809,1861 1947,1861 678,0 1207,-274 1588,-597l0 -1263 -1130 0z"/>
  </g>
 </g>
</svg>
